<mxfile host="app.diagrams.net" modified="2022-02-22T17:32:10.454Z" agent="5.0 (Macintosh; Intel Mac OS X 10_15_7) AppleWebKit/537.36 (KHTML, like Gecko) Chrome/98.0.4758.102 Safari/537.36" etag="yNzjiXx3BGJ-PDQbCiV-" version="16.6.1" type="github">
  <diagram id="OJdp8P1OiK-Xffwb5Y5e" name="Page-1">
    <mxGraphModel dx="946" dy="553" grid="1" gridSize="10" guides="1" tooltips="1" connect="1" arrows="1" fold="1" page="1" pageScale="1" pageWidth="850" pageHeight="1100" math="0" shadow="0">
      <root>
        <mxCell id="0" />
        <mxCell id="1" parent="0" />
        <mxCell id="994A0qnDcmqlzFf-0iK2-24" style="edgeStyle=orthogonalEdgeStyle;rounded=0;orthogonalLoop=1;jettySize=auto;html=1;exitX=1;exitY=1;exitDx=0;exitDy=0;entryX=0.5;entryY=0.133;entryDx=0;entryDy=0;entryPerimeter=0;" parent="1" source="994A0qnDcmqlzFf-0iK2-4" target="994A0qnDcmqlzFf-0iK2-17" edge="1">
          <mxGeometry relative="1" as="geometry" />
        </mxCell>
        <mxCell id="994A0qnDcmqlzFf-0iK2-54" style="edgeStyle=orthogonalEdgeStyle;rounded=0;orthogonalLoop=1;jettySize=auto;html=1;exitX=0;exitY=1;exitDx=0;exitDy=0;entryX=0.88;entryY=0.25;entryDx=0;entryDy=0;entryPerimeter=0;" parent="1" source="994A0qnDcmqlzFf-0iK2-4" target="994A0qnDcmqlzFf-0iK2-15" edge="1">
          <mxGeometry relative="1" as="geometry" />
        </mxCell>
        <mxCell id="994A0qnDcmqlzFf-0iK2-4" value="Resource A" style="ellipse;whiteSpace=wrap;html=1;" parent="1" vertex="1">
          <mxGeometry x="200" y="140" width="80" height="80" as="geometry" />
        </mxCell>
        <mxCell id="994A0qnDcmqlzFf-0iK2-11" style="edgeStyle=orthogonalEdgeStyle;rounded=0;orthogonalLoop=1;jettySize=auto;html=1;exitX=0;exitY=1;exitDx=0;exitDy=0;entryX=0.5;entryY=0;entryDx=0;entryDy=0;" parent="1" source="994A0qnDcmqlzFf-0iK2-6" target="994A0qnDcmqlzFf-0iK2-4" edge="1">
          <mxGeometry relative="1" as="geometry" />
        </mxCell>
        <mxCell id="994A0qnDcmqlzFf-0iK2-12" style="edgeStyle=orthogonalEdgeStyle;rounded=0;orthogonalLoop=1;jettySize=auto;html=1;exitX=0.25;exitY=1;exitDx=0;exitDy=0;" parent="1" source="994A0qnDcmqlzFf-0iK2-6" target="994A0qnDcmqlzFf-0iK2-7" edge="1">
          <mxGeometry relative="1" as="geometry" />
        </mxCell>
        <mxCell id="994A0qnDcmqlzFf-0iK2-13" style="edgeStyle=orthogonalEdgeStyle;rounded=0;orthogonalLoop=1;jettySize=auto;html=1;exitX=0.75;exitY=1;exitDx=0;exitDy=0;entryX=0.5;entryY=0;entryDx=0;entryDy=0;" parent="1" source="994A0qnDcmqlzFf-0iK2-6" target="994A0qnDcmqlzFf-0iK2-8" edge="1">
          <mxGeometry relative="1" as="geometry" />
        </mxCell>
        <mxCell id="994A0qnDcmqlzFf-0iK2-14" style="edgeStyle=orthogonalEdgeStyle;rounded=0;orthogonalLoop=1;jettySize=auto;html=1;exitX=1;exitY=1;exitDx=0;exitDy=0;" parent="1" source="994A0qnDcmqlzFf-0iK2-6" target="994A0qnDcmqlzFf-0iK2-9" edge="1">
          <mxGeometry relative="1" as="geometry" />
        </mxCell>
        <mxCell id="994A0qnDcmqlzFf-0iK2-6" value="/sys/fs/cgroup" style="rounded=1;whiteSpace=wrap;html=1;" parent="1" vertex="1">
          <mxGeometry x="340" y="40" width="120" height="60" as="geometry" />
        </mxCell>
        <mxCell id="994A0qnDcmqlzFf-0iK2-25" style="edgeStyle=orthogonalEdgeStyle;rounded=0;orthogonalLoop=1;jettySize=auto;html=1;exitX=1;exitY=1;exitDx=0;exitDy=0;entryX=0.4;entryY=0.1;entryDx=0;entryDy=0;entryPerimeter=0;" parent="1" source="994A0qnDcmqlzFf-0iK2-7" target="994A0qnDcmqlzFf-0iK2-18" edge="1">
          <mxGeometry relative="1" as="geometry" />
        </mxCell>
        <mxCell id="994A0qnDcmqlzFf-0iK2-7" value="Resource B" style="ellipse;whiteSpace=wrap;html=1;" parent="1" vertex="1">
          <mxGeometry x="300" y="140" width="80" height="80" as="geometry" />
        </mxCell>
        <mxCell id="994A0qnDcmqlzFf-0iK2-26" style="edgeStyle=orthogonalEdgeStyle;rounded=0;orthogonalLoop=1;jettySize=auto;html=1;exitX=1;exitY=1;exitDx=0;exitDy=0;entryX=0.4;entryY=0.1;entryDx=0;entryDy=0;entryPerimeter=0;" parent="1" source="994A0qnDcmqlzFf-0iK2-8" target="994A0qnDcmqlzFf-0iK2-19" edge="1">
          <mxGeometry relative="1" as="geometry" />
        </mxCell>
        <mxCell id="994A0qnDcmqlzFf-0iK2-8" value="Resource C" style="ellipse;whiteSpace=wrap;html=1;" parent="1" vertex="1">
          <mxGeometry x="400" y="140" width="80" height="80" as="geometry" />
        </mxCell>
        <mxCell id="994A0qnDcmqlzFf-0iK2-28" style="edgeStyle=orthogonalEdgeStyle;rounded=0;orthogonalLoop=1;jettySize=auto;html=1;exitX=1;exitY=1;exitDx=0;exitDy=0;entryX=0.4;entryY=0.1;entryDx=0;entryDy=0;entryPerimeter=0;" parent="1" source="994A0qnDcmqlzFf-0iK2-9" target="994A0qnDcmqlzFf-0iK2-20" edge="1">
          <mxGeometry relative="1" as="geometry" />
        </mxCell>
        <mxCell id="994A0qnDcmqlzFf-0iK2-9" value="Resource Z" style="ellipse;whiteSpace=wrap;html=1;" parent="1" vertex="1">
          <mxGeometry x="550" y="140" width="80" height="80" as="geometry" />
        </mxCell>
        <mxCell id="FZW45bgyYGvxyegEyCyl-19" style="edgeStyle=orthogonalEdgeStyle;rounded=0;orthogonalLoop=1;jettySize=auto;html=1;exitX=0.55;exitY=0.95;exitDx=0;exitDy=0;exitPerimeter=0;entryX=0.75;entryY=0.25;entryDx=0;entryDy=0;entryPerimeter=0;fontColor=#009900;" edge="1" parent="1" source="994A0qnDcmqlzFf-0iK2-15" target="994A0qnDcmqlzFf-0iK2-33">
          <mxGeometry relative="1" as="geometry" />
        </mxCell>
        <mxCell id="994A0qnDcmqlzFf-0iK2-15" value="cgroup 1" style="ellipse;shape=cloud;whiteSpace=wrap;html=1;" parent="1" vertex="1">
          <mxGeometry x="110" y="240" width="100" height="60" as="geometry" />
        </mxCell>
        <mxCell id="FZW45bgyYGvxyegEyCyl-17" style="edgeStyle=orthogonalEdgeStyle;rounded=0;orthogonalLoop=1;jettySize=auto;html=1;exitX=0.55;exitY=0.95;exitDx=0;exitDy=0;exitPerimeter=0;entryX=0.848;entryY=0.126;entryDx=0;entryDy=0;entryPerimeter=0;fontColor=#009900;" edge="1" parent="1" source="994A0qnDcmqlzFf-0iK2-17" target="FZW45bgyYGvxyegEyCyl-14">
          <mxGeometry relative="1" as="geometry" />
        </mxCell>
        <mxCell id="994A0qnDcmqlzFf-0iK2-17" value="cgroup 2" style="ellipse;shape=cloud;whiteSpace=wrap;html=1;" parent="1" vertex="1">
          <mxGeometry x="220" y="240" width="100" height="60" as="geometry" />
        </mxCell>
        <mxCell id="FZW45bgyYGvxyegEyCyl-10" style="edgeStyle=orthogonalEdgeStyle;rounded=0;orthogonalLoop=1;jettySize=auto;html=1;exitX=0.8;exitY=0.8;exitDx=0;exitDy=0;exitPerimeter=0;fontColor=#009900;" edge="1" parent="1" source="994A0qnDcmqlzFf-0iK2-18" target="FZW45bgyYGvxyegEyCyl-7">
          <mxGeometry relative="1" as="geometry" />
        </mxCell>
        <mxCell id="FZW45bgyYGvxyegEyCyl-11" style="edgeStyle=orthogonalEdgeStyle;rounded=0;orthogonalLoop=1;jettySize=auto;html=1;exitX=0.31;exitY=0.8;exitDx=0;exitDy=0;exitPerimeter=0;fontColor=#009900;" edge="1" parent="1" source="994A0qnDcmqlzFf-0iK2-18" target="994A0qnDcmqlzFf-0iK2-40">
          <mxGeometry relative="1" as="geometry" />
        </mxCell>
        <mxCell id="994A0qnDcmqlzFf-0iK2-18" value="cgroup 3" style="ellipse;shape=cloud;whiteSpace=wrap;html=1;" parent="1" vertex="1">
          <mxGeometry x="330" y="240" width="100" height="60" as="geometry" />
        </mxCell>
        <mxCell id="FZW45bgyYGvxyegEyCyl-13" style="edgeStyle=orthogonalEdgeStyle;rounded=0;orthogonalLoop=1;jettySize=auto;html=1;exitX=0.8;exitY=0.8;exitDx=0;exitDy=0;exitPerimeter=0;fontColor=#009900;" edge="1" parent="1" source="994A0qnDcmqlzFf-0iK2-19" target="FZW45bgyYGvxyegEyCyl-8">
          <mxGeometry relative="1" as="geometry" />
        </mxCell>
        <mxCell id="FZW45bgyYGvxyegEyCyl-21" style="edgeStyle=orthogonalEdgeStyle;rounded=0;orthogonalLoop=1;jettySize=auto;html=1;exitX=0.31;exitY=0.8;exitDx=0;exitDy=0;exitPerimeter=0;fontColor=#009900;" edge="1" parent="1" source="994A0qnDcmqlzFf-0iK2-19" target="994A0qnDcmqlzFf-0iK2-34">
          <mxGeometry relative="1" as="geometry" />
        </mxCell>
        <mxCell id="994A0qnDcmqlzFf-0iK2-19" value="cgroup 4" style="ellipse;shape=cloud;whiteSpace=wrap;html=1;" parent="1" vertex="1">
          <mxGeometry x="440" y="240" width="100" height="60" as="geometry" />
        </mxCell>
        <mxCell id="994A0qnDcmqlzFf-0iK2-52" style="edgeStyle=orthogonalEdgeStyle;rounded=0;orthogonalLoop=1;jettySize=auto;html=1;exitX=0.31;exitY=0.8;exitDx=0;exitDy=0;exitPerimeter=0;" parent="1" source="994A0qnDcmqlzFf-0iK2-20" target="994A0qnDcmqlzFf-0iK2-35" edge="1">
          <mxGeometry relative="1" as="geometry" />
        </mxCell>
        <mxCell id="994A0qnDcmqlzFf-0iK2-53" style="edgeStyle=orthogonalEdgeStyle;rounded=0;orthogonalLoop=1;jettySize=auto;html=1;exitX=0.8;exitY=0.8;exitDx=0;exitDy=0;exitPerimeter=0;" parent="1" source="994A0qnDcmqlzFf-0iK2-20" target="994A0qnDcmqlzFf-0iK2-36" edge="1">
          <mxGeometry relative="1" as="geometry" />
        </mxCell>
        <mxCell id="994A0qnDcmqlzFf-0iK2-20" value="cgroup 5" style="ellipse;shape=cloud;whiteSpace=wrap;html=1;" parent="1" vertex="1">
          <mxGeometry x="590" y="240" width="100" height="60" as="geometry" />
        </mxCell>
        <mxCell id="994A0qnDcmqlzFf-0iK2-33" value="&lt;font color=&quot;#de3215&quot;&gt;pid1001&lt;/font&gt;" style="sketch=0;outlineConnect=0;fontColor=#232F3E;gradientColor=none;fillColor=#232F3D;strokeColor=none;dashed=0;verticalLabelPosition=bottom;verticalAlign=top;align=center;html=1;fontSize=12;fontStyle=0;aspect=fixed;pointerEvents=1;shape=mxgraph.aws4.gear;" parent="1" vertex="1">
          <mxGeometry x="140" y="320" width="40" height="40" as="geometry" />
        </mxCell>
        <mxCell id="994A0qnDcmqlzFf-0iK2-34" value="&lt;font color=&quot;#de3215&quot;&gt;pid1001&lt;/font&gt;" style="sketch=0;outlineConnect=0;fontColor=#232F3E;gradientColor=none;fillColor=#232F3D;strokeColor=none;dashed=0;verticalLabelPosition=bottom;verticalAlign=top;align=center;html=1;fontSize=12;fontStyle=0;aspect=fixed;pointerEvents=1;shape=mxgraph.aws4.gear;direction=north;" parent="1" vertex="1">
          <mxGeometry x="460" y="320" width="40" height="40" as="geometry" />
        </mxCell>
        <mxCell id="994A0qnDcmqlzFf-0iK2-35" value="&lt;font color=&quot;#de3215&quot;&gt;pid1001&lt;/font&gt;" style="sketch=0;outlineConnect=0;fontColor=#232F3E;gradientColor=none;fillColor=#232F3D;strokeColor=none;dashed=0;verticalLabelPosition=bottom;verticalAlign=top;align=center;html=1;fontSize=12;fontStyle=0;aspect=fixed;pointerEvents=1;shape=mxgraph.aws4.gear;" parent="1" vertex="1">
          <mxGeometry x="610" y="320" width="40" height="40" as="geometry" />
        </mxCell>
        <mxCell id="994A0qnDcmqlzFf-0iK2-36" value="&lt;font color=&quot;#009900&quot;&gt;pid103&lt;/font&gt;" style="sketch=0;outlineConnect=0;fontColor=#232F3E;gradientColor=none;fillColor=#232F3D;strokeColor=none;dashed=0;verticalLabelPosition=bottom;verticalAlign=top;align=center;html=1;fontSize=12;fontStyle=0;aspect=fixed;pointerEvents=1;shape=mxgraph.aws4.gear;" parent="1" vertex="1">
          <mxGeometry x="660" y="320" width="40" height="40" as="geometry" />
        </mxCell>
        <mxCell id="994A0qnDcmqlzFf-0iK2-40" value="&lt;font color=&quot;#de3215&quot;&gt;pid1001&lt;/font&gt;" style="sketch=0;outlineConnect=0;fontColor=#232F3E;gradientColor=none;fillColor=#232F3D;strokeColor=none;dashed=0;verticalLabelPosition=bottom;verticalAlign=top;align=center;html=1;fontSize=12;fontStyle=0;aspect=fixed;pointerEvents=1;shape=mxgraph.aws4.gear;" parent="1" vertex="1">
          <mxGeometry x="340" y="320" width="40" height="40" as="geometry" />
        </mxCell>
        <mxCell id="FZW45bgyYGvxyegEyCyl-7" value="&lt;font color=&quot;#009900&quot;&gt;pid1003&lt;/font&gt;" style="sketch=0;outlineConnect=0;fontColor=#232F3E;gradientColor=none;fillColor=#232F3D;strokeColor=none;dashed=0;verticalLabelPosition=bottom;verticalAlign=top;align=center;html=1;fontSize=12;fontStyle=0;aspect=fixed;pointerEvents=1;shape=mxgraph.aws4.gear;" vertex="1" parent="1">
          <mxGeometry x="390" y="320" width="40" height="40" as="geometry" />
        </mxCell>
        <mxCell id="FZW45bgyYGvxyegEyCyl-8" value="&lt;font color=&quot;#009900&quot;&gt;pid1003&lt;/font&gt;" style="sketch=0;outlineConnect=0;fontColor=#232F3E;gradientColor=none;fillColor=#232F3D;strokeColor=none;dashed=0;verticalLabelPosition=bottom;verticalAlign=top;align=center;html=1;fontSize=12;fontStyle=0;aspect=fixed;pointerEvents=1;shape=mxgraph.aws4.gear;" vertex="1" parent="1">
          <mxGeometry x="510" y="320" width="40" height="40" as="geometry" />
        </mxCell>
        <mxCell id="FZW45bgyYGvxyegEyCyl-14" value="&lt;font color=&quot;#009900&quot;&gt;pid1003&lt;/font&gt;" style="sketch=0;outlineConnect=0;fontColor=#232F3E;gradientColor=none;fillColor=#232F3D;strokeColor=none;dashed=0;verticalLabelPosition=bottom;verticalAlign=top;align=center;html=1;fontSize=12;fontStyle=0;aspect=fixed;pointerEvents=1;shape=mxgraph.aws4.gear;" vertex="1" parent="1">
          <mxGeometry x="250" y="320" width="40" height="40" as="geometry" />
        </mxCell>
      </root>
    </mxGraphModel>
  </diagram>
</mxfile>
